# xmcd
# 
# Track frame offsets:
#     150
#     12571
#     23345
#     37620
#     50421
#     63718
#     75957
#     88986
#     103824
#     114745
#     128581
#     142405
#     152799
#     165128
#     175691
#     187333
#     197193
#     209830
#     222755
#     232985
#     245276
#     256527
#     269130
#     279562
#     291033
#     302110
#     313416
#     327995
# 
# Disc length: 4544
# 
# Revision: 1
# Processed by: cddbd v1.5.2PL0 Copyright (c) Steve Scherf et al.
# Submitted via: fre:ac v1.0.31
# 
DISCID=9c11be1c
DTITLE=Elmore James - Complete Singles A's and B's 1951-62 Disc 2
DYEAR=2015
DGENRE=Blues
TTITLE0=Happy Home (1955)
TTITLE1=No Love In My Heart (1955)
TTITLE2=Dust My Blues (1955)
TTITLE3=I Was A Fool (1955)
TTITLE4=Goodbye Baby (1955)
TTITLE5=Blues Before Sunrise (1955)
TTITLE6=Long Tall Woman (1956)
TTITLE7=Wild About You (1956)
TTITLE8=Coming Home (1957)
TTITLE9=12 Year Old Boy (1957)
TTITLE10=It Hurts Me Too (1957)
TTITLE11=Elmore's Contribution To Jazz (1957)
TTITLE12=Cry For Me Baby (1957)
TTITLE13=Take Me Where You Go (1957)
TTITLE14=Knocking At Your Door (1960)
TTITLE15=Bobby's Rock (1959)
TTITLE16=Sky Is Crying (1960)
TTITLE17=Held My Baby Last Night (1960)
TTITLE18=I Can't Hold Out (1960)
TTITLE19=Sun Is Shining (1960)
TTITLE20=Rollin' And Tumblin' (1960)
TTITLE21=I'm Worried (1960)
TTITLE22=Done Sombody Wrong (1960)
TTITLE23=Fine Little Mama (1960)
TTITLE24=Look On Yonder Wall (1961)
TTITLE25=Shake Your Moneymaker (1961)
TTITLE26=Stranger Blues (1962)
TTITLE27=Anna Lee (1962)
EXTD=
EXTT0=
EXTT1=
EXTT2=
EXTT3=
EXTT4=
EXTT5=
EXTT6=
EXTT7=
EXTT8=
EXTT9=
EXTT10=
EXTT11=
EXTT12=
EXTT13=
EXTT14=
EXTT15=
EXTT16=
EXTT17=
EXTT18=
EXTT19=
EXTT20=
EXTT21=
EXTT22=
EXTT23=
EXTT24=
EXTT25=
EXTT26=
EXTT27=
PLAYORDER=
